<svg width="100%" height="100%" xmlns="http://www.w3.org/2000/svg" viewBox="0 0 3000 1000">
  <!-- Definindo o gradiente radial e o padrão -->
  <defs>
    <!-- Gradiente radial -->
    <radialGradient id="grad1" cx="50%" cy="0%" r="100%" fx="50%" fy="0%">
      <stop offset="0%" style="stop-color:#17171a;stop-opacity:1" />
      <stop offset="100%" style="stop-color:#090A0F;stop-opacity:1" />
    </radialGradient>

    <!-- Padrão -->
    <pattern id="pattern" patternUnits="userSpaceOnUse" width="50" height="67" patternTransform="scale(1) skewY(-21)">
      <path d="m331.5 465.609-47.891-53.761c16.161-26.246 32.313-52.469 48.621-78.942l-39.667-1.23c-.981-.028-1.731.035-2.356 1.054l-48.519 81.028c-.118.199-.2.418-.375.785l45.382 48.375c.86.926 1.703 1.371 3.012 1.406zM89.129 363.219c10.664 0 18.383 1.543 18.383 11.847 0 10.215-8.446 12.055-18.59 12.055H73.398v-23.902zm-1.43 52.09c8.543 0 15.731.539 15.731 8.371 0 7.925-7.032 8.789-15.325 8.789H73.398v-17.16zm-52.496 49.839h57.809q25.728 0 37.172-10.523c17.394-16.004 16.207-43.781-11.434-51.57q10.208-2.456 18.582-10.321c11.004-10.328 10.262-26.851 3.168-39.929-3.473-6.407-9.125-11.746-16.953-16.035-7.832-4.29-17.945-6.43-30.332-6.43H35.203Zm118.469 0h38.195V363.219h57.805V330.34h-96zm-118.469-153.3H146.56v-42.239H77.7v-14.004h57.727v-36.136H77.699v-56.692H35.203Zm184.988-64.821c11.317 0 20.454 2.567 20.454 14.227 0 11.766-9.215 14.457-20.68 14.457h-22.274v-28.684zm-64.996 64.821h64.996c22.875 0 39.09-4.856 48.633-14.571q14.314-14.571 14.313-36.023c0-26.801-10.449-42.914-31.36-48.332l-3.183-.453 28.64-49.692h-47.273l-27.266 49.692h-5.004v-49.692h-42.496Zm136.582-149.071h40.45v149.071h-40.45zM79.016 62.719c30.168 0 35.769 32.265 21.492 47.484-8.996 9.594-21.371 7.93-34.738 7.93V62.719Zm-43.649 81.566H78.36c32.332 0 60.161-17.496 60.161-52.96 0-34.981-27.559-54.923-60.813-54.923H35.203Zm161.508-56.394-7.684 16.839-7.683-16.84Zm-22.395 56.394h29.094l48.227-107.883h-31.879l-12.586 27.79h-36.289l-12.426-27.79h-32.039zm85.004-65.547-43.976 65.547h32.043l26.48-42.004 26.157 42.004h32.042l-43.812-65.707V36.402H259.32z" style="fill:#ffff;fill-opacity:.1;fill-rule:nonzero;stroke:none" transform="matrix(.13333 0 0 -.13333 0 66.667)"/>
    </pattern>
  </defs>
  
  <!-- Aplicando o gradiente radial ao fundo -->
  <rect width="100%" height="100%" fill="url(#grad1)" />
  <!-- Preenchendo a tela com o padrão -->
  <rect width="100%" height="100%" fill="url(#pattern)" />
</svg>
